<mxfile host="app.diagrams.net" agent="Mozilla/5.0 (Macintosh; Intel Mac OS X 10_15_7) AppleWebKit/537.36 (KHTML, like Gecko) Chrome/135.0.0.0 Safari/537.36" version="26.2.13">
  <diagram id="Ht1M8jgEwFfnCIfOTk4-" name="Page-1">
    <mxGraphModel dx="1945" dy="1048" grid="1" gridSize="10" guides="1" tooltips="1" connect="1" arrows="1" fold="1" page="1" pageScale="1" pageWidth="827" pageHeight="1169" math="0" shadow="0">
      <root>
        <mxCell id="0" />
        <mxCell id="1" parent="0" />
        <mxCell id="jZVaUwOg5UY3L9NAnvdq-71" value="AWS Cloud" style="points=[[0,0],[0.25,0],[0.5,0],[0.75,0],[1,0],[1,0.25],[1,0.5],[1,0.75],[1,1],[0.75,1],[0.5,1],[0.25,1],[0,1],[0,0.75],[0,0.5],[0,0.25]];outlineConnect=0;gradientColor=none;html=1;whiteSpace=wrap;fontSize=12;fontStyle=0;shape=mxgraph.aws4.group;grIcon=mxgraph.aws4.group_aws_cloud_alt;strokeColor=#232F3E;fillColor=none;verticalAlign=top;align=left;spacingLeft=30;fontColor=#232F3E;dashed=0;labelBackgroundColor=none;container=1;pointerEvents=0;collapsible=0;recursiveResize=0;" parent="1" vertex="1">
          <mxGeometry x="36.5" y="130" width="683.5" height="710" as="geometry" />
        </mxCell>
        <mxCell id="pyhoRx6HutO-5y7TROgT-17" value="バックエンド" style="fillColor=none;strokeColor=#67AB9F;dashed=1;verticalAlign=top;fontStyle=0;fontColor=#67AB9F;whiteSpace=wrap;html=1;" vertex="1" parent="jZVaUwOg5UY3L9NAnvdq-71">
          <mxGeometry x="243.5" y="390" width="400" height="280" as="geometry" />
        </mxCell>
        <mxCell id="Kdh0TlH22Dbh6Vwh0U4J-2" value="CloudFront" style="sketch=0;points=[[0,0,0],[0.25,0,0],[0.5,0,0],[0.75,0,0],[1,0,0],[0,1,0],[0.25,1,0],[0.5,1,0],[0.75,1,0],[1,1,0],[0,0.25,0],[0,0.5,0],[0,0.75,0],[1,0.25,0],[1,0.5,0],[1,0.75,0]];outlineConnect=0;fontColor=#232F3E;fillColor=#8C4FFF;strokeColor=#ffffff;dashed=0;verticalLabelPosition=bottom;verticalAlign=top;align=center;html=1;fontSize=12;fontStyle=0;aspect=fixed;shape=mxgraph.aws4.resourceIcon;resIcon=mxgraph.aws4.cloudfront;" parent="jZVaUwOg5UY3L9NAnvdq-71" vertex="1">
          <mxGeometry x="43.5" y="150" width="40" height="40" as="geometry" />
        </mxCell>
        <mxCell id="Kdh0TlH22Dbh6Vwh0U4J-6" value="ACM" style="sketch=0;points=[[0,0,0],[0.25,0,0],[0.5,0,0],[0.75,0,0],[1,0,0],[0,1,0],[0.25,1,0],[0.5,1,0],[0.75,1,0],[1,1,0],[0,0.25,0],[0,0.5,0],[0,0.75,0],[1,0.25,0],[1,0.5,0],[1,0.75,0]];outlineConnect=0;fontColor=#232F3E;fillColor=#DD344C;strokeColor=#ffffff;dashed=0;verticalLabelPosition=bottom;verticalAlign=top;align=center;html=1;fontSize=12;fontStyle=0;aspect=fixed;shape=mxgraph.aws4.resourceIcon;resIcon=mxgraph.aws4.certificate_manager_3;" parent="jZVaUwOg5UY3L9NAnvdq-71" vertex="1">
          <mxGeometry x="203.5" y="30" width="40" height="40" as="geometry" />
        </mxCell>
        <mxCell id="Kdh0TlH22Dbh6Vwh0U4J-7" value="Route 53" style="sketch=0;points=[[0,0,0],[0.25,0,0],[0.5,0,0],[0.75,0,0],[1,0,0],[0,1,0],[0.25,1,0],[0.5,1,0],[0.75,1,0],[1,1,0],[0,0.25,0],[0,0.5,0],[0,0.75,0],[1,0.25,0],[1,0.5,0],[1,0.75,0]];outlineConnect=0;fontColor=#232F3E;fillColor=#8C4FFF;strokeColor=#ffffff;dashed=0;verticalLabelPosition=bottom;verticalAlign=top;align=center;html=1;fontSize=12;fontStyle=0;aspect=fixed;shape=mxgraph.aws4.resourceIcon;resIcon=mxgraph.aws4.route_53;" parent="jZVaUwOg5UY3L9NAnvdq-71" vertex="1">
          <mxGeometry x="283.5" y="30" width="40" height="40" as="geometry" />
        </mxCell>
        <mxCell id="pyhoRx6HutO-5y7TROgT-7" value="VPC" style="points=[[0,0],[0.25,0],[0.5,0],[0.75,0],[1,0],[1,0.25],[1,0.5],[1,0.75],[1,1],[0.75,1],[0.5,1],[0.25,1],[0,1],[0,0.75],[0,0.5],[0,0.25]];outlineConnect=0;gradientColor=none;html=1;whiteSpace=wrap;fontSize=12;fontStyle=0;container=1;pointerEvents=0;collapsible=0;recursiveResize=0;shape=mxgraph.aws4.group;grIcon=mxgraph.aws4.group_vpc2;strokeColor=#8C4FFF;fillColor=none;verticalAlign=top;align=left;spacingLeft=30;fontColor=#AAB7B8;dashed=0;" vertex="1" parent="jZVaUwOg5UY3L9NAnvdq-71">
          <mxGeometry x="283.5" y="430" width="240" height="200" as="geometry" />
        </mxCell>
        <mxCell id="pyhoRx6HutO-5y7TROgT-4" value="File System" style="sketch=0;outlineConnect=0;fontColor=#232F3E;gradientColor=none;fillColor=#7AA116;strokeColor=none;dashed=0;verticalLabelPosition=bottom;verticalAlign=top;align=center;html=1;fontSize=12;fontStyle=0;aspect=fixed;pointerEvents=1;shape=mxgraph.aws4.file_system;" vertex="1" parent="jZVaUwOg5UY3L9NAnvdq-71">
          <mxGeometry x="563.5" y="550" width="42.74" height="40" as="geometry" />
        </mxCell>
        <mxCell id="pyhoRx6HutO-5y7TROgT-6" value="" style="edgeStyle=orthogonalEdgeStyle;html=1;endArrow=block;elbow=vertical;startArrow=none;endFill=1;strokeColor=#545B64;rounded=0;" edge="1" parent="jZVaUwOg5UY3L9NAnvdq-71" source="pyhoRx6HutO-5y7TROgT-1" target="pyhoRx6HutO-5y7TROgT-4">
          <mxGeometry width="100" relative="1" as="geometry">
            <mxPoint x="253.5" y="381" as="sourcePoint" />
            <mxPoint x="353.5" y="381" as="targetPoint" />
          </mxGeometry>
        </mxCell>
        <mxCell id="pyhoRx6HutO-5y7TROgT-8" value="CloudFormation" style="sketch=0;points=[[0,0,0],[0.25,0,0],[0.5,0,0],[0.75,0,0],[1,0,0],[0,1,0],[0.25,1,0],[0.5,1,0],[0.75,1,0],[1,1,0],[0,0.25,0],[0,0.5,0],[0,0.75,0],[1,0.25,0],[1,0.5,0],[1,0.75,0]];points=[[0,0,0],[0.25,0,0],[0.5,0,0],[0.75,0,0],[1,0,0],[0,1,0],[0.25,1,0],[0.5,1,0],[0.75,1,0],[1,1,0],[0,0.25,0],[0,0.5,0],[0,0.75,0],[1,0.25,0],[1,0.5,0],[1,0.75,0]];outlineConnect=0;fontColor=#232F3E;fillColor=#E7157B;strokeColor=#ffffff;dashed=0;verticalLabelPosition=bottom;verticalAlign=top;align=center;html=1;fontSize=12;fontStyle=0;aspect=fixed;shape=mxgraph.aws4.resourceIcon;resIcon=mxgraph.aws4.cloudformation;" vertex="1" parent="jZVaUwOg5UY3L9NAnvdq-71">
          <mxGeometry x="43.5" y="30" width="40" height="40" as="geometry" />
        </mxCell>
        <mxCell id="pyhoRx6HutO-5y7TROgT-5" value="" style="edgeStyle=orthogonalEdgeStyle;html=1;endArrow=block;elbow=vertical;startArrow=none;endFill=1;strokeColor=#545B64;rounded=0;" edge="1" parent="jZVaUwOg5UY3L9NAnvdq-71" source="pyhoRx6HutO-5y7TROgT-2" target="pyhoRx6HutO-5y7TROgT-1">
          <mxGeometry width="100" relative="1" as="geometry">
            <mxPoint x="433.5" y="504" as="sourcePoint" />
            <mxPoint x="533.5" y="504" as="targetPoint" />
            <Array as="points">
              <mxPoint x="384" y="490" />
              <mxPoint x="384" y="570" />
            </Array>
          </mxGeometry>
        </mxCell>
        <mxCell id="pyhoRx6HutO-5y7TROgT-2" value="Lambda" style="sketch=0;points=[[0,0,0],[0.25,0,0],[0.5,0,0],[0.75,0,0],[1,0,0],[0,1,0],[0.25,1,0],[0.5,1,0],[0.75,1,0],[1,1,0],[0,0.25,0],[0,0.5,0],[0,0.75,0],[1,0.25,0],[1,0.5,0],[1,0.75,0]];outlineConnect=0;fontColor=#232F3E;fillColor=#ED7100;strokeColor=#ffffff;dashed=0;verticalLabelPosition=bottom;verticalAlign=top;align=center;html=1;fontSize=12;fontStyle=0;aspect=fixed;shape=mxgraph.aws4.resourceIcon;resIcon=mxgraph.aws4.lambda;" vertex="1" parent="jZVaUwOg5UY3L9NAnvdq-71">
          <mxGeometry x="323.5" y="470" width="40" height="40" as="geometry" />
        </mxCell>
        <mxCell id="pyhoRx6HutO-5y7TROgT-18" value="" style="shape=image;verticalLabelPosition=bottom;labelBackgroundColor=default;verticalAlign=top;aspect=fixed;imageAspect=0;editableCssRules=.*;image=data:image/svg+xml,PHN2ZyB4bWxucz0iaHR0cDovL3d3dy53My5vcmcvMjAwMC9zdmciIGZpbGw9Im5vbmUiIHZpZXdCb3g9IjAgMCA4NzUuMDA0MDI4MzIwMzEyNSAyMTIiIGhlaWdodD0iMjEyIiB3aWR0aD0iODc1LjAwNDAyODMyMDMxMjUiPiYjeGE7PHBhdGggZmlsbD0iIzIxMjA2NyIgZD0iTTg0My45OTkgMzEuMTEwNUM4NDcuNTg0IDM0LjcwNzYgODUxLjgxNyAzNi41MDYxIDg1Ni42OTkgMzYuNTA2MUM4NjEuNzMzIDM2LjUwNjEgODY2LjA0MiAzNC43MDc2IDg2OS42MjcgMzEuMTEwNUM4NzMuMjEyIDI3LjUxMzUgODc1LjAwNCAyMy4yNjU5IDg3NS4wMDQgMTguMzY3OEM4NzUuMDA0IDEzLjQ2OTcgODczLjIxMiA5LjE4MzkzIDg2OS42MjcgNS41MTAzNUM4NjYuMDQyIDEuODM2NzYgODYxLjczMyAwIDg1Ni42OTkgMEM4NTEuODE3IDAgODQ3LjU4NCAxLjgzNjc2IDg0My45OTkgNS41MTAzNUM4NDAuNDE0IDkuMTgzOTMgODM4LjYyMiAxMy40Njk3IDgzOC42MjIgMTguMzY3OEM4MzguNjIyIDIzLjI2NTkgODQwLjQxNCAyNy41MTM1IDg0My45OTkgMzEuMTEwNVoiLz4mI3hhOzxwYXRoIGZpbGw9IiMyMTIwNjciIGQ9Ik00NTcuOTc2IDc4LjA3NDJDNDU3Ljk3NiA3OC40NTAyIDQ1Ny42NzEgNzguNzU1MSA0NTcuMjk1IDc4Ljc1NTFINDMyLjExOVYxMjYuNTExQzQzMi4xMTkgMTMwLjQ5MSA0MzMuMTExIDEzMy4zOTkgNDM1LjA5NCAxMzUuMjM2QzQzNy4wNzcgMTM3LjA3MyA0MzkuOTc1IDEzOC4xMDYgNDQzLjc4OSAxMzguMzM2QzQ0Ny4yNzggMTM4LjU0NiA0NTEuNTMzIDEzOC41MzIgNDU2LjU1NCAxMzguMjkzTDQ1Ni42ODMgMTM4LjI4N0w0NTYuOTE1IDEzOC4yNzZMNDU3LjI1OSAxMzguMjU4QzQ1Ny42NDkgMTM4LjIzOCA0NTcuOTc2IDEzOC41NDkgNDU3Ljk3NiAxMzguOTM5VjE2NC40NzVDNDU3Ljk3NiAxNjQuODIyIDQ1Ny43MTUgMTY1LjExMyA0NTcuMzcxIDE2NS4xNTFDNDU3LjIwMyAxNjUuMTY5IDQ1Ny4wMzQgMTY1LjE4OCA0NTYuOTA5IDE2NS4yMDFDNDM3LjE4NSAxNjcuMzExIDQyMy4yNCAxNjUuMzU5IDQxNS4wNzIgMTU5LjM0NEM0MDYuNzU4IDE1My4yMjEgNDAyLjYwMSAxNDIuMjc3IDQwMi42MDEgMTI2LjUxMVY3OC43NTUxSDM4My4zNzVDMzgyLjk5OSA3OC43NTUxIDM4Mi42OTQgNzguNDUwMiAzODIuNjk0IDc4LjA3NDJWNTAuOTY1OUMzODIuNjk0IDUwLjU4OTkgMzgyLjk5OSA1MC4yODUgMzgzLjM3NSA1MC4yODVINDAyLjYwMVYzMS4zMjMxQzQwMi42MDEgMzAuNzgzOCA0MDIuOTIgMzAuMjk1MiA0MDMuNDEzIDMwLjA3NzNMNDMxLjE2MyAxNy44MjIzQzQzMS42MTMgMTcuNjIzNSA0MzIuMTE5IDE3Ljk1MzEgNDMyLjExOSAxOC40NDUyVjUwLjI4NUg0NTcuMjk1QzQ1Ny42NzEgNTAuMjg1IDQ1Ny45NzYgNTAuNTg5OSA0NTcuOTc2IDUwLjk2NTlWNzguMDc0MloiLz4mI3hhOzxwYXRoIGZpbGw9IiMyMTIwNjciIGQ9Ik01MTEuNTAxIDcwLjAyODlDNTE0LjI0NyA2Mi42ODE3IDUxOC43ODUgNTcuMTcxNCA1MjUuMTE2IDUzLjQ5NzhDNTMwLjkwOSA1MC4xMzU5IDUzNy4zMSA0OC4zMTI0IDU0NC4zMTcgNDguMDI3MUM1NDQuNjU2IDQ4LjAxMzQgNTQ1LjE3NSA0OC4wMDMyIDU0NS41OTQgNDcuOTk2NkM1NDUuOTczIDQ3Ljk5MDYgNTQ2LjI4MiA0OC4yOTY1IDU0Ni4yODIgNDguNjc1M1Y3OS44Mjk5QzU0Ni4yODIgODAuNDgwNCA1NDUuNzE3IDgwLjk4MSA1NDUuMDY5IDgwLjkyMjJDNTM2LjU1NyA4MC4xNDk4IDUyOC45MTQgODIuMDI5IDUyMi4xNDEgODYuNTU5OUM1MTUuMDQ4IDkxLjMwNDkgNTExLjUwMSA5OS4xODc3IDUxMS41MDEgMTEwLjIwOFYxNjQuNDAxQzUxMS41MDEgMTY0Ljc3NyA1MTEuMTk2IDE2NS4wODIgNTEwLjgyIDE2NS4wODJINDgyLjY2NEM0ODIuMjg4IDE2NS4wODIgNDgxLjk4MyAxNjQuNzc3IDQ4MS45ODMgMTY0LjQwMVY1MC45NjQ0QzQ4MS45ODMgNTAuNTg4MyA0ODIuMjg4IDUwLjI4MzQgNDgyLjY2NCA1MC4yODM0SDUxMC44MkM1MTEuMTk2IDUwLjI4MzQgNTExLjUwMSA1MC41ODgzIDUxMS41MDEgNTAuOTY0NFY3MC4wMjg5WiIvPiYjeGE7PHBhdGggZmlsbD0iIzIxMjA2NyIgZD0iTTY1MS4wNzQgNTAuMjgxNUM2NTAuNjk4IDUwLjI4MTUgNjUwLjM5MyA1MC41ODY0IDY1MC4zOTMgNTAuOTYyNVY2My44Mjc4QzY0MS41NDUgNTIuNjU0IDYyOS4xMTMgNDcuMDY3MiA2MTMuMDk1IDQ3LjA2NzJDNTk3Ljg0IDQ3LjA2NzIgNTg0Ljc2IDUyLjkyMTggNTczLjg1MiA2NC42MzE0QzU2Mi45NDUgNzYuMzQwOSA1NTcuNDkyIDkwLjY5MDcgNTU3LjQ5MiAxMDcuNjgxQzU1Ny40OTIgMTI0LjY3MSA1NjIuOTQ1IDEzOS4wMjEgNTczLjg1MiAxNTAuNzMxQzU4NC43NiAxNjIuNDQgNTk3Ljg0IDE2OC4yOTUgNjEzLjA5NSAxNjguMjk1QzYyOS4xMTMgMTY4LjI5NSA2NDEuNTQ1IDE2Mi43MDggNjUwLjM5MyAxNTEuNTM0VjE2NC40QzY1MC4zOTMgMTY0Ljc3NiA2NTAuNjk4IDE2NS4wOCA2NTEuMDc0IDE2NS4wOEg2NzkuMjNDNjc5LjYwNiAxNjUuMDggNjc5LjkxMSAxNjQuNzc2IDY3OS45MTEgMTY0LjRWNTAuOTYyNUM2NzkuOTExIDUwLjU4NjQgNjc5LjYwNiA1MC4yODE1IDY3OS4yMyA1MC4yODE1SDY1MS4wNzRaTTU5NS45MzEgMTMxLjEwMUM2MDEuODgxIDEzNy4wNzEgNjA5LjQzMiAxNDAuMDU2IDYxOC41ODUgMTQwLjA1NkM2MjcuNzM4IDE0MC4wNTYgNjM1LjMyNyAxMzcuMDMzIDY0MS4zNTIgMTMwLjk4N0M2NDcuMzc4IDEyNC45NDEgNjUwLjM5MSAxMTcuMTczIDY1MC4zOTEgMTA3LjY4MkM2NTAuMzkxIDk4LjE5MjQgNjQ3LjM3OCA5MC40MjQ0IDY0MS4zNTIgODQuMzc4M0M2MzUuMzI3IDc4LjMzMjIgNjI3LjczOCA3NS4zMDkyIDYxOC41ODUgNzUuMzA5MkM2MDkuNDMyIDc1LjMwOTIgNjAxLjg4MSA3OC4zMzIyIDU5NS45MzEgODQuMzc4M0M1ODkuOTgyIDkwLjQyNDQgNTg3LjAwNyA5OC4xOTI0IDU4Ny4wMDcgMTA3LjY4MkM1ODcuMDA3IDExNy4xNzMgNTg5Ljk4MiAxMjQuOTc5IDU5NS45MzEgMTMxLjEwMVoiIGNsaXAtcnVsZT0iZXZlbm9kZCIgZmlsbC1ydWxlPSJldmVub2RkIi8+JiN4YTs8cGF0aCBmaWxsPSIjMjEyMDY3IiBkPSJNODA4LjExNyA2NC42MzE0Qzc5Ny4yMSA1Mi45MjE4IDc4NC4wNTIgNDcuMDY3MiA3NjguNjQ1IDQ3LjA2NzJDNzUyLjYyOCA0Ny4wNjcyIDc0MC4yNzEgNTIuNjU0IDczMS41NzYgNjMuODI3OFY1MC45NjI1QzczMS41NzYgNTAuNTg2NCA3MzEuMjcxIDUwLjI4MTUgNzMwLjg5NSA1MC4yODE1SDcwMi43MzlDNzAyLjM2MyA1MC4yODE1IDcwMi4wNTggNTAuNTg2NCA3MDIuMDU4IDUwLjk2MjVWMjEwLjMxOUM3MDIuMDU4IDIxMC42OTUgNzAyLjM2MyAyMTEgNzAyLjczOSAyMTFINzMwLjg5NUM3MzEuMjcxIDIxMSA3MzEuNTc2IDIxMC42OTUgNzMxLjU3NiAyMTAuMzE5VjE1MS41MzRDNzQwLjI3MSAxNjIuNzA4IDc1Mi42MjggMTY4LjI5NSA3NjguNjQ1IDE2OC4yOTVDNzg0LjA1MiAxNjguMjk1IDc5Ny4yMSAxNjIuNDQgODA4LjExNyAxNTAuNzMxQzgxOS4wMjQgMTM5LjAyMSA4MjQuNDc3IDEyNC42NzEgODI0LjQ3NyAxMDcuNjgxQzgyNC40NzcgOTAuNjkwNyA4MTkuMDI0IDc2LjM0MDkgODA4LjExNyA2NC42MzE0Wk03NDAuNDk4IDEzMS4xMDFDNzQ2LjQ0NyAxMzcuMDcxIDc1My45OTggMTQwLjA1NiA3NjMuMTUxIDE0MC4wNTZDNzcyLjMwNCAxNDAuMDU2IDc3OS44OTMgMTM3LjAzMyA3ODUuOTE5IDEzMC45ODdDNzkxLjk0NCAxMjQuOTQxIDc5NC45NTcgMTE3LjE3MyA3OTQuOTU3IDEwNy42ODJDNzk0Ljk1NyA5OC4xOTI0IDc5MS45NDQgOTAuNDI0NCA3ODUuOTE5IDg0LjM3ODNDNzc5Ljg5MyA3OC4zMzIyIDc3Mi4zMDQgNzUuMzA5MiA3NjMuMTUxIDc1LjMwOTJDNzUzLjk5OCA3NS4zMDkyIDc0Ni40NDcgNzguMzMyMiA3NDAuNDk4IDg0LjM3ODNDNzM0LjU0OCA5MC40MjQ0IDczMS41NzQgOTguMTkyNCA3MzEuNTc0IDEwNy42ODJDNzMxLjU3NCAxMTcuMTczIDczNC41NDggMTI0Ljk3OSA3NDAuNDk4IDEzMS4xMDFaIiBjbGlwLXJ1bGU9ImV2ZW5vZGQiIGZpbGwtcnVsZT0iZXZlbm9kZCIvPiYjeGE7PHBhdGggZmlsbD0iIzIxMjA2NyIgZD0iTTg0Mi43MzggMTY1LjA4M0M4NDIuMzYyIDE2NS4wODMgODQyLjA1NyAxNjQuNzc4IDg0Mi4wNTcgMTY0LjQwMlY1MC45NjVDODQyLjA1NyA1MC41ODg5IDg0Mi4zNjIgNTAuMjg0IDg0Mi43MzggNTAuMjg0SDg3MC44OTRDODcxLjI3IDUwLjI4NCA4NzEuNTc1IDUwLjU4ODkgODcxLjU3NSA1MC45NjVWMTY0LjQwMkM4NzEuNTc1IDE2NC43NzggODcxLjI3IDE2NS4wODMgODcwLjg5NCAxNjUuMDgzSDg0Mi43MzhaIi8+JiN4YTs8cGF0aCBmaWxsPSIjMjEyMDY3IiBkPSJNMzE1LjgzOSA5MC4zNDYyQzMxMS43OTYgODguNDMyOSAzMDkuNzc1IDg1Ljk0NTYgMzA5Ljc3NSA4Mi44ODQzQzMwOS43NzUgNzkuOTc2IDMxMS4wMzMgNzcuNjgwMSAzMTMuNTUgNzUuOTk2M0MzMTYuMDY3IDc0LjMxMjYgMzE5LjIzMyA3My40NzA4IDMyMy4wNDYgNzMuNDcwOEMzMzAuMzU5IDczLjQ3MDggMzM1Ljg4NCA3Ni4zMzExIDMzOS42MTkgODIuMDUxOEMzMzkuODggODIuNDUwOSAzNDAuMzg3IDgyLjYxMjQgMzQwLjgyMyA4Mi40MTlMMzY1LjcyNyA3MS4zNjM2QzM2Ni4wOTggNzEuMTk5IDM2Ni4yNDQgNzAuNzQ5MSAzNjYuMDM3IDcwLjM5OThDMzY1Ljc2MyA2OS45MzU2IDM2NS40MDEgNjkuMzMwNCAzNjUuMTYxIDY4Ljk1MTZDMzYwLjg5MiA2Mi4yMTg0IDM1NS4zNyA1Ny4yMDI1IDM0OC40NDYgNTMuMzgxQzM0MC44MTggNDkuMTcxNiAzMzIuMzUyIDQ3LjA2NyAzMjMuMDQ2IDQ3LjA2N0MzMTAuNjkgNDcuMDY3IDMwMC4zNTUgNTAuMzE5NiAyOTIuMDQxIDU2LjgyNDlDMjgzLjcyNyA2My4zMzAyIDI3OS41NyA3Mi4yNDYyIDI3OS41NyA4My41NzMxQzI3OS41NyA5MS4wNzMzIDI4MS41OTIgOTcuMzEwNyAyODUuNjM0IDEwMi4yODVDMjg5LjY3NyAxMDcuMjYgMjk0LjU5NiAxMTAuODk1IDMwMC4zOTMgMTEzLjE5MUMzMDYuMTkgMTE1LjQ4NyAzMTEuOTg3IDExNy40IDMxNy43ODQgMTE4LjkzMUMzMjMuNTggMTIwLjQ2MiAzMjguNSAxMjIuMTg0IDMzMi41NDMgMTI0LjA5N0MzMzYuNTg1IDEyNi4wMSAzMzguNjA2IDEyOC40OTggMzM4LjYwNiAxMzEuNTU5QzMzOC42MDYgMTM4LjE0MSAzMzMuMzQzIDE0MS40MzIgMzIyLjgxOCAxNDEuNDMyQzMxMi43OTggMTQxLjQzMiAzMDUuODU1IDEzNy43MTYgMzAxLjk4OCAxMzAuMjg2QzMwMS42NTYgMTI5LjY0NyAzMDAuODk2IDEyOS4zNTUgMzAwLjIzOCAxMjkuNjQ4TDI3NS40MDQgMTQwLjY4OUMyNzUuMDU0IDE0MC44NDQgMjc0LjkwMSAxNDEuMjU4IDI3NS4wNjcgMTQxLjYwM0MyNzUuMTY4IDE0MS44MTEgMjc1LjI3NCAxNDIuMDI5IDI3NS4zNTEgMTQyLjE4NEMyODQuMDMgMTU5LjU5MSAyOTkuODUyIDE2OC4yOTUgMzIyLjgxOCAxNjguMjk1QzMzNS45MzcgMTY4LjI5NSAzNDYuODgyIDE2NS4xMTkgMzU1LjY1MyAxNTguNzY2QzM2NC40MjUgMTUyLjQxNCAzNjguODExIDE0My4zNDUgMzY4LjgxMSAxMzEuNTU5QzM2OC44MTEgMTIzLjc1MyAzNjYuNzg5IDExNy4yNDcgMzYyLjc0NyAxMTIuMDQzQzM1OC43MDQgMTA2LjgzOSAzNTMuNzg1IDEwMy4xMjcgMzQ3Ljk4OCAxMDAuOTA4QzM0Mi4xOTEgOTguNjg4MyAzMzYuMzk0IDk2Ljg1MTUgMzMwLjU5OCA5NS4zOTc0QzMyNC44MDEgOTMuOTQzMiAzMTkuODgxIDkyLjI1OTUgMzE1LjgzOSA5MC4zNDYyWiIvPiYjeGE7PHBhdGggZmlsbD0iIzQ5NDVGRiIgZD0iTTAgNzMuNDkzM0MwIDM4Ljg0ODIgMCAyMS41MjU3IDEwLjc2MjggMTAuNzYyOEMyMS41MjU3IDAgMzguODQ4MiAwIDczLjQ5MzMgMEgxMzguNTA3QzE3My4xNTIgMCAxOTAuNDc0IDAgMjAxLjIzNyAxMC43NjI4QzIxMiAyMS41MjU3IDIxMiAzOC44NDgyIDIxMiA3My40OTMzVjEzOC41MDdDMjEyIDE3My4xNTIgMjEyIDE5MC40NzQgMjAxLjIzNyAyMDEuMjM3QzE5MC40NzQgMjEyIDE3My4xNTIgMjEyIDEzOC41MDcgMjEySDczLjQ5MzNDMzguODQ4MiAyMTIgMjEuNTI1NyAyMTIgMTAuNzYyOCAyMDEuMjM3QzAgMTkwLjQ3NCAwIDE3My4xNTIgMCAxMzguNTA3VjczLjQ5MzNaIi8+JiN4YTs8cGF0aCBmaWxsPSJ3aGl0ZSIgZD0iTTE0Ni4yOCA2NC4zMDY2SDc0LjkwNjJWMTAwLjdIMTExLjNWMTM3LjA5M0wxNDcuNjkzIDEzNy4wOTNWNjUuNzJDMTQ3LjY5MyA2NC45Mzk0IDE0Ny4wNiA2NC4zMDY2IDE0Ni4yOCA2NC4zMDY2WiIgY2xpcC1ydWxlPSJldmVub2RkIiBmaWxsLXJ1bGU9ImV2ZW5vZGQiLz4mI3hhOzxyZWN0IGZpbGw9IndoaXRlIiBoZWlnaHQ9IjEuNDEzMzMiIHdpZHRoPSIxLjQxMzMzIiB5PSIxMDAuNyIgeD0iMTA5Ljg4NiIvPiYjeGE7PHBhdGggZmlsbD0iIzk1OTNGRiIgZD0iTTc0LjkwNjIgMTAwLjdIMTA5Ljg4NkMxMTAuNjY3IDEwMC43IDExMS4zIDEwMS4zMzMgMTExLjMgMTAyLjExM1YxMzcuMDkzSDc2LjMxOTZDNzUuNTM5IDEzNy4wOTMgNzQuOTA2MiAxMzYuNDYxIDc0LjkwNjIgMTM1LjY4VjEwMC43WiIvPiYjeGE7PHBhdGggZmlsbD0iIzk1OTNGRiIgZD0iTTExMS4zIDEzNy4wOTNIMTQ3LjY5M0wxMTIuNTA2IDE3Mi4yOEMxMTIuMDYxIDE3Mi43MjUgMTExLjMgMTcyLjQxIDExMS4zIDE3MS43ODFWMTM3LjA5M1oiLz4mI3hhOzxwYXRoIGZpbGw9IiM5NTkzRkYiIGQ9Ik03NC45MDYxIDEwMC43SDQwLjIxODhDMzkuNTg5MyAxMDAuNyAzOS4yNzQgOTkuOTM4OCAzOS43MTkxIDk5LjQ5MzZMNzQuOTA2MSA2NC4zMDY2VjEwMC43WiIvPiYjeGE7PC9zdmc+;" vertex="1" parent="jZVaUwOg5UY3L9NAnvdq-71">
          <mxGeometry x="400.95" y="470" width="82.55" height="20" as="geometry" />
        </mxCell>
        <mxCell id="pyhoRx6HutO-5y7TROgT-1" value="EFS" style="sketch=0;points=[[0,0,0],[0.25,0,0],[0.5,0,0],[0.75,0,0],[1,0,0],[0,1,0],[0.25,1,0],[0.5,1,0],[0.75,1,0],[1,1,0],[0,0.25,0],[0,0.5,0],[0,0.75,0],[1,0.25,0],[1,0.5,0],[1,0.75,0]];outlineConnect=0;fontColor=#232F3E;fillColor=#7AA116;strokeColor=#ffffff;dashed=0;verticalLabelPosition=bottom;verticalAlign=top;align=center;html=1;fontSize=12;fontStyle=0;aspect=fixed;shape=mxgraph.aws4.resourceIcon;resIcon=mxgraph.aws4.elastic_file_system;" vertex="1" parent="jZVaUwOg5UY3L9NAnvdq-71">
          <mxGeometry x="443.5" y="550" width="40" height="40" as="geometry" />
        </mxCell>
        <mxCell id="pyhoRx6HutO-5y7TROgT-21" value="IAM" style="sketch=0;points=[[0,0,0],[0.25,0,0],[0.5,0,0],[0.75,0,0],[1,0,0],[0,1,0],[0.25,1,0],[0.5,1,0],[0.75,1,0],[1,1,0],[0,0.25,0],[0,0.5,0],[0,0.75,0],[1,0.25,0],[1,0.5,0],[1,0.75,0]];outlineConnect=0;fontColor=#232F3E;fillColor=#DD344C;strokeColor=#ffffff;dashed=0;verticalLabelPosition=bottom;verticalAlign=top;align=center;html=1;fontSize=12;fontStyle=0;aspect=fixed;shape=mxgraph.aws4.resourceIcon;resIcon=mxgraph.aws4.identity_and_access_management;" vertex="1" parent="jZVaUwOg5UY3L9NAnvdq-71">
          <mxGeometry x="123.5" y="30" width="40" height="40" as="geometry" />
        </mxCell>
        <mxCell id="pyhoRx6HutO-5y7TROgT-30" value="" style="edgeStyle=orthogonalEdgeStyle;html=1;endArrow=block;elbow=vertical;startArrow=none;endFill=1;strokeColor=#545B64;rounded=0;" edge="1" parent="jZVaUwOg5UY3L9NAnvdq-71" source="Kdh0TlH22Dbh6Vwh0U4J-2" target="pyhoRx6HutO-5y7TROgT-2">
          <mxGeometry width="100" relative="1" as="geometry">
            <mxPoint x="223.5" y="360" as="sourcePoint" />
            <mxPoint x="323.5" y="360" as="targetPoint" />
            <Array as="points">
              <mxPoint x="104" y="170" />
              <mxPoint x="104" y="490" />
            </Array>
          </mxGeometry>
        </mxCell>
        <mxCell id="pyhoRx6HutO-5y7TROgT-32" value="OAC" style="edgeLabel;html=1;align=center;verticalAlign=middle;resizable=0;points=[];" vertex="1" connectable="0" parent="pyhoRx6HutO-5y7TROgT-30">
          <mxGeometry x="0.347" y="-1" relative="1" as="geometry">
            <mxPoint x="3" y="-1" as="offset" />
          </mxGeometry>
        </mxCell>
        <mxCell id="pyhoRx6HutO-5y7TROgT-34" value="/data-api/*" style="edgeLabel;html=1;align=center;verticalAlign=middle;resizable=0;points=[];" vertex="1" connectable="0" parent="pyhoRx6HutO-5y7TROgT-30">
          <mxGeometry x="0.5806" y="-1" relative="1" as="geometry">
            <mxPoint x="-2" y="-11" as="offset" />
          </mxGeometry>
        </mxCell>
        <mxCell id="-QjtrjUzRDEMRZ5MF8oH-47" value="keitaito.net infra.drawio" style="text;html=1;resizable=0;points=[];autosize=1;align=left;verticalAlign=top;spacingTop=-4;fontSize=30;fontStyle=1;labelBackgroundColor=none;" parent="1" vertex="1">
          <mxGeometry x="36.5" y="26.5" width="330" height="40" as="geometry" />
        </mxCell>
        <mxCell id="-QjtrjUzRDEMRZ5MF8oH-48" value="2025年4月17日 更新" style="text;html=1;resizable=0;points=[];autosize=1;align=left;verticalAlign=top;spacingTop=-4;fontSize=16;labelBackgroundColor=none;" parent="1" vertex="1">
          <mxGeometry x="36.5" y="76.5" width="170" height="30" as="geometry" />
        </mxCell>
        <mxCell id="SCVMTBWpLvtzJIhz15lM-1" value="" style="line;strokeWidth=2;html=1;fontSize=14;labelBackgroundColor=none;" parent="1" vertex="1">
          <mxGeometry x="32.5" y="101.5" width="927.5" height="10" as="geometry" />
        </mxCell>
        <mxCell id="pyhoRx6HutO-5y7TROgT-24" value="GitHub" style="shape=image;verticalLabelPosition=bottom;labelBackgroundColor=default;verticalAlign=top;aspect=fixed;imageAspect=0;editableCssRules=.*;image=data:image/svg+xml,PHN2ZyB4bWxucz0iaHR0cDovL3d3dy53My5vcmcvMjAwMC9zdmciIHZpZXdCb3g9IjMuNjExOTk5NTExNzE4NzUgNS4xMDMwMDAxNjQwMzE5ODIgMTIwLjc3NzAwMDQyNzI0NjEgMTE3Ljc5Mzc4NTA5NTIxNDg0IiB3aWR0aD0iMTIwLjc3NzAwMDQyNzI0NjEiIGhlaWdodD0iMTE3Ljc5Mzc4NTA5NTIxNDg0Ij48ZyBmaWxsPSIjMTgxNjE2Ij48cGF0aCBkPSJNNjQgNS4xMDNjLTMzLjM0NyAwLTYwLjM4OCAyNy4wMzUtNjAuMzg4IDYwLjM4OCAwIDI2LjY4MiAxNy4zMDMgNDkuMzE3IDQxLjI5NyA1Ny4zMDMgMy4wMTcuNTYgNC4xMjUtMS4zMSA0LjEyNS0yLjkwNSAwLTEuNDQtLjA1Ni02LjE5Ny0uMDgyLTExLjI0My0xNi44IDMuNjUzLTIwLjM0NS03LjEyNS0yMC4zNDUtNy4xMjUtMi43NDctNi45OC02LjcwNS04LjgzNi02LjcwNS04LjgzNi01LjQ4LTMuNzQ4LjQxMy0zLjY3LjQxMy0zLjY3IDYuMDYzLjQyNSA5LjI1NyA2LjIyMyA5LjI1NyA2LjIyMyA1LjM4NiA5LjIzIDE0LjEyNyA2LjU2MiAxNy41NzMgNS4wMi41NDItMy45MDMgMi4xMDctNi41NjggMy44MzQtOC4wNzYtMTMuNDEzLTEuNTI1LTI3LjUxNC02LjcwNC0yNy41MTQtMjkuODQzIDAtNi41OTMgMi4zNi0xMS45OCA2LjIyMy0xNi4yMS0uNjI4LTEuNTItMi42OTUtNy42NjIuNTg0LTE1Ljk4IDAgMCA1LjA3LTEuNjIzIDE2LjYxIDYuMTlDNTMuNyAzNSA1OC44NjcgMzQuMzI3IDY0IDM0LjMwNGM1LjEzLjAyMyAxMC4zLjY5NCAxNS4xMjcgMi4wMzMgMTEuNTI2LTcuODEzIDE2LjU5LTYuMTkgMTYuNTktNi4xOSAzLjI4NyA4LjMxNyAxLjIyIDE0LjQ2LjU5MyAxNS45OCAzLjg3MiA0LjIzIDYuMjE1IDkuNjE3IDYuMjE1IDE2LjIxIDAgMjMuMTk0LTE0LjEyNyAyOC4zLTI3LjU3NCAyOS43OTYgMi4xNjcgMS44NzQgNC4wOTcgNS41NSA0LjA5NyAxMS4xODMgMCA4LjA4LS4wNyAxNC41ODMtLjA3IDE2LjU3MiAwIDEuNjA3IDEuMDg4IDMuNDkgNC4xNDggMi44OTcgMjMuOTgtNy45OTQgNDEuMjYzLTMwLjYyMiA0MS4yNjMtNTcuMjk0QzEyNC4zODggMzIuMTQgOTcuMzUgNS4xMDQgNjQgNS4xMDR6IiBjbGlwLXJ1bGU9ImV2ZW5vZGQiIGZpbGwtcnVsZT0iZXZlbm9kZCIvPjxwYXRoIGQ9Ik0yNi40ODQgOTEuODA2Yy0uMTMzLjMtLjYwNS4zOS0xLjAzNS4xODUtLjQ0LS4xOTYtLjY4NS0uNjA1LS41NDMtLjkwNi4xMy0uMzEuNjAzLS4zOTUgMS4wNC0uMTg4LjQ0LjE5Ny42OS42MS41MzcuOTF6bTIuNDQ2IDIuNzI5Yy0uMjg3LjI2Ny0uODUuMTQzLTEuMjMyLS4yOC0uMzk2LS40Mi0uNDctLjk4My0uMTc3LTEuMjU0LjI5OC0uMjY2Ljg0NC0uMTQgMS4yNC4yOC4zOTQuNDI2LjQ3Mi45ODQuMTcgMS4yNTV6TTMxLjMxMiA5OC4wMTJjLS4zNy4yNTgtLjk3Ni4wMTctMS4zNS0uNTItLjM3LS41MzgtLjM3LTEuMTgzLjAxLTEuNDQuMzczLS4yNTguOTctLjAyNSAxLjM1LjUwNy4zNjguNTQ1LjM2OCAxLjE5LS4wMSAxLjQ1MnptMy4yNjEgMy4zNjFjLS4zMy4zNjUtMS4wMzYuMjY3LTEuNTUyLS4yMy0uNTI3LS40ODctLjY3NC0xLjE4LS4zNDMtMS41NDQuMzM2LS4zNjYgMS4wNDUtLjI2NCAxLjU2NC4yMy41MjcuNDg2LjY4NiAxLjE4LjMzMyAxLjU0M3ptNC41IDEuOTUxYy0uMTQ3LjQ3My0uODI1LjY4OC0xLjUxLjQ4Ni0uNjgzLS4yMDctMS4xMy0uNzYtLjk5LTEuMjM4LjE0LS40NzcuODIzLS43IDEuNTEyLS40ODUuNjgzLjIwNiAxLjEzLjc1Ni45ODggMS4yMzd6bTQuOTQzLjM2MWMuMDE3LjQ5OC0uNTYzLjkxLTEuMjguOTItLjcyMy4wMTctMS4zMDgtLjM4Ny0xLjMxNS0uODc3IDAtLjUwMy41NjgtLjkxIDEuMjktLjkyNC43MTctLjAxMyAxLjMwNi4zODcgMS4zMDYuODh6bTQuNTk4LS43ODJjLjA4Ni40ODUtLjQxMy45ODQtMS4xMjYgMS4xMTctLjcuMTMtMS4zNS0uMTcyLTEuNDQtLjY1My0uMDg2LS40OTguNDIyLS45OTcgMS4xMjItMS4xMjYuNzE0LS4xMjMgMS4zNTQuMTcgMS40NDQuNjYzem0wIDAiLz48L2c+PC9zdmc+;" vertex="1" parent="1">
          <mxGeometry x="880" y="720" width="41.03" height="40" as="geometry" />
        </mxCell>
        <mxCell id="pyhoRx6HutO-5y7TROgT-23" value="Actions" style="shape=image;verticalLabelPosition=bottom;labelBackgroundColor=default;verticalAlign=top;aspect=fixed;imageAspect=0;editableCssRules=.*;image=data:image/svg+xml,PHN2ZyB4bWxucz0iaHR0cDovL3d3dy53My5vcmcvMjAwMC9zdmciIHZpZXdCb3g9IjAgMCAxMjggMTI4IiB3aWR0aD0iMTI4IiBoZWlnaHQ9IjEyOCI+PHBhdGggZD0iTTI2LjY2NiAwQzExLjk3IDAgMCAxMS45NyAwIDI2LjY2NmMwIDEyLjg3IDkuMTgxIDIzLjY1MSAyMS4zMzQgMjYuMTN2MzcuODdjMCAxMS43NyA5LjY4IDIxLjMzNCAyMS4zMzIgMjEuMzM0aC4xOTVjMS4zMDIgOS4wMjMgOS4xIDE2IDE4LjQ3MyAxNkM3MS42MTIgMTI4IDgwIDExOS42MTIgODAgMTA5LjMzNHMtOC4zODgtMTguNjY4LTE4LjY2Ni0xOC42NjhjLTkuMzcyIDAtMTcuMTcgNi45NzctMTguNDczIDE2aC0uMTk1Yy04LjczNyAwLTE2LTcuMTUyLTE2LTE2VjYzLjc3OWExOC41MTQgMTguNTE0IDAgMCAwIDEzLjI0IDUuNTU1aDIuOTU1YzEuMzAzIDkuMDIzIDkuMSAxNiAxOC40NzMgMTYgOS4zNzIgMCAxNy4xNjktNi45NzcgMTguNDctMTZoMTEuMDU3YzEuMzAzIDkuMDIzIDkuMSAxNiAxOC40NzMgMTYgMTAuMjc4IDAgMTguNjY2LTguMzkgMTguNjY2LTE4LjY2OEMxMjggNTYuMzg4IDExOS42MTIgNDggMTA5LjMzNCA0OGMtOS4zNzMgMC0xNy4xNzEgNi45NzctMTguNDczIDE2SDc5LjgwNWMtMS4zMDEtOS4wMjMtOS4wOTgtMTYtMTguNDcxLTE2cy0xNy4xNzEgNi45NzctMTguNDczIDE2aC0yLjk1NWMtNi40MzMgMC0xMS43OTMtNC41ODktMTIuOTg4LTEwLjY3MiAxNC41OC0uMTM2IDI2LjQxNi0xMi4wNSAyNi40MTYtMjYuNjYyQzUzLjMzNCAxMS45NyA0MS4zNjIgMCAyNi42NjYgMHptMCA1LjMzNEEyMS4yOTIgMjEuMjkyIDAgMCAxIDQ4IDI2LjY2NiAyMS4yOTQgMjEuMjk0IDAgMCAxIDI2LjY2NiA0OCAyMS4yOTIgMjEuMjkyIDAgMCAxIDUuMzM0IDI2LjY2NiAyMS4yOSAyMS4yOSAwIDAgMSAyNi42NjYgNS4zMzR6bS01LjIxNSA3LjU0MUMxOC42NyAxMi44ODkgMTYgMTUuMTIzIDE2IDE4LjE2NnYxNy4wNDNjMCA0LjA0MyA0LjcwOSA2LjY2MyA4LjE0NSA0LjUzM2wxMy42MzQtOC40NTVjMy4yNTctMi4wMiAzLjI3NC03LjAwMi4wMzItOS4wNDVsLTEzLjYzNS04LjU5YTUuMDI0IDUuMDI0IDAgMCAwLTIuNzI1LS43Nzd6bS0uMTE3IDUuMjkxIDEzLjYzNSA4LjU4OC0xMy42MzUgOC40NTVWMTguMTY2em00MCAzNS4xNjhhMTMuMjkgMTMuMjkgMCAwIDEgMTMuMzMyIDEzLjMzMkExMy4yOTMgMTMuMjkzIDAgMCAxIDYxLjMzNCA4MCAxMy4yOTQgMTMuMjk0IDAgMCAxIDQ4IDY2LjY2NmExMy4yOTMgMTMuMjkzIDAgMCAxIDEzLjMzNC0xMy4zMzJ6bTQ4IDBhMTMuMjkgMTMuMjkgMCAwIDEgMTMuMzMyIDEzLjMzMkExMy4yOTMgMTMuMjkzIDAgMCAxIDEwOS4zMzQgODAgMTMuMjk0IDEzLjI5NCAwIDAgMSA5NiA2Ni42NjZhMTMuMjkzIDEzLjI5MyAwIDAgMSAxMy4zMzQtMTMuMzMyem0tNDIuNTY4IDYuOTUxYTIuNjY3IDIuNjY3IDAgMCAwLTEuODg3Ljc4bC02LjMgNi4yOTQtMi4wOTMtMi4wODRhMi42NjcgMi42NjcgMCAwIDAtMy43NzEuMDA2IDIuNjY3IDIuNjY3IDAgMCAwIC4wMDggMy43NzJsMy45NzQgMy45NmEyLjY2NyAyLjY2NyAwIDAgMCAzLjc2Ni0uMDAxbDguMTg1LTguMTc0YTIuNjY3IDIuNjY3IDAgMCAwIC4wMDItMy43NzIgMi42NjcgMi42NjcgMCAwIDAtMS44ODQtLjc4em00OCAwYTIuNjY3IDIuNjY3IDAgMCAwLTEuODg3Ljc4bC02LjMgNi4yOTQtMi4wOTMtMi4wODRhMi42NjcgMi42NjcgMCAwIDAtMy43NzEuMDA2IDIuNjY3IDIuNjY3IDAgMCAwIC4wMDggMy43NzJsMy45NzQgMy45NmEyLjY2NyAyLjY2NyAwIDAgMCAzLjc2Ni0uMDAxbDguMTg1LTguMTc0YTIuNjY3IDIuNjY3IDAgMCAwIC4wMDItMy43NzIgMi42NjcgMi42NjcgMCAwIDAtMS44ODQtLjc4ek02MS4zMzQgOTZhMTMuMjkzIDEzLjI5MyAwIDAgMSAxMy4zMzIgMTMuMzM0IDEzLjI5IDEzLjI5IDAgMCAxLTEzLjMzMiAxMy4zMzJBMTMuMjkzIDEzLjI5MyAwIDAgMSA0OCAxMDkuMzM0IDEzLjI5NCAxMy4yOTQgMCAwIDEgNjEuMzM0IDk2ek01NiAxMDUuMzM0Yy0yLjE5MyAwLTQgMS44MDctNCA0IDAgMi4xOTUgMS44MDggNCA0IDRzNC0xLjgwNSA0LTRjMC0yLjE5My0xLjgwNy00LTQtNHptMTAuNjY2IDBjLTIuMTkzIDAtNCAxLjgwNy00IDQgMCAyLjE5NSAxLjgwOCA0IDQgNHM0LTEuODA1IDQtNGMwLTIuMTkzLTEuODA3LTQtNC00ek01NiAxMDhjLjc1IDAgMS4zMzQuNTg1IDEuMzM0IDEuMzM0IDAgLjc1My0uNTgzIDEuMzMyLTEuMzM0IDEuMzMyLS43NSAwLTEuMzM0LS41OC0xLjMzNC0xLjMzMiAwLS43NS41ODUtMS4zMzQgMS4zMzQtMS4zMzR6bTEwLjY2NiAwYy43NSAwIDEuMzM0LjU4NSAxLjMzNCAxLjMzNCAwIC43NTMtLjU4MyAxLjMzMi0xLjMzNCAxLjMzMi0uNzUgMC0xLjMzMi0uNTgtMS4zMzItMS4zMzIgMC0uNzUuNTgzLTEuMzM0IDEuMzMyLTEuMzM0eiIgZmlsbD0iIzIwODhmZiIvPjxwYXRoIGQ9Ik0xMDkuMzM0IDkwLjY2NmMtOS4zODMgMC0xNy4xODggNi45OTMtMTguNDc3IDE2LjAzMWEyLjY2NyAyLjY2NyAwIDAgMC0uMjY1LS4wMTFsLTIuNy4wOWEyLjY2NyAyLjY2NyAwIDAgMC0yLjU3OCAyLjc1MSAyLjY2NyAyLjY2NyAwIDAgMCAyLjc1MiAyLjU3OGwyLjctLjA4N2EyLjY2NyAyLjY2NyAwIDAgMCAuMDk3LS4wMDZDOTIuMTcgMTIxLjAyOSA5OS45NjUgMTI4IDEwOS4zMzQgMTI4YzEwLjI3OCAwIDE4LjY2Ni04LjM4OCAxOC42NjYtMTguNjY2cy04LjM4OC0xOC42NjgtMTguNjY2LTE4LjY2OHptMCA1LjMzNGExMy4yOTMgMTMuMjkzIDAgMCAxIDEzLjMzMiAxMy4zMzQgMTMuMjkgMTMuMjkgMCAwIDEtMTMuMzMyIDEzLjMzMkExMy4yOTMgMTMuMjkzIDAgMCAxIDk2IDEwOS4zMzQgMTMuMjk0IDEzLjI5NCAwIDAgMSAxMDkuMzM0IDk2eiIgZmlsbD0iIzc5YjhmZiIvPjwvc3ZnPg==;" vertex="1" parent="1">
          <mxGeometry x="880" y="640" width="40" height="40" as="geometry" />
        </mxCell>
        <mxCell id="pyhoRx6HutO-5y7TROgT-11" value="フロントエンド" style="fillColor=none;strokeColor=#EA6B66;dashed=1;verticalAlign=top;fontStyle=0;fontColor=#EA6B66;whiteSpace=wrap;html=1;" vertex="1" parent="1">
          <mxGeometry x="280" y="240" width="320" height="240" as="geometry" />
        </mxCell>
        <mxCell id="Kdh0TlH22Dbh6Vwh0U4J-3" value="Lambda" style="sketch=0;points=[[0,0,0],[0.25,0,0],[0.5,0,0],[0.75,0,0],[1,0,0],[0,1,0],[0.25,1,0],[0.5,1,0],[0.75,1,0],[1,1,0],[0,0.25,0],[0,0.5,0],[0,0.75,0],[1,0.25,0],[1,0.5,0],[1,0.75,0]];outlineConnect=0;fontColor=#232F3E;fillColor=#ED7100;strokeColor=#ffffff;dashed=0;verticalLabelPosition=bottom;verticalAlign=top;align=center;html=1;fontSize=12;fontStyle=0;aspect=fixed;shape=mxgraph.aws4.resourceIcon;resIcon=mxgraph.aws4.lambda;" parent="1" vertex="1">
          <mxGeometry x="320" y="280" width="40" height="40" as="geometry" />
        </mxCell>
        <mxCell id="Kdh0TlH22Dbh6Vwh0U4J-4" value="S3" style="sketch=0;points=[[0,0,0],[0.25,0,0],[0.5,0,0],[0.75,0,0],[1,0,0],[0,1,0],[0.25,1,0],[0.5,1,0],[0.75,1,0],[1,1,0],[0,0.25,0],[0,0.5,0],[0,0.75,0],[1,0.25,0],[1,0.5,0],[1,0.75,0]];outlineConnect=0;fontColor=#232F3E;fillColor=#7AA116;strokeColor=#ffffff;dashed=0;verticalLabelPosition=bottom;verticalAlign=top;align=center;html=1;fontSize=12;fontStyle=0;aspect=fixed;shape=mxgraph.aws4.resourceIcon;resIcon=mxgraph.aws4.s3;" parent="1" vertex="1">
          <mxGeometry x="320" y="400" width="40" height="40" as="geometry" />
        </mxCell>
        <mxCell id="Kdh0TlH22Dbh6Vwh0U4J-5" value="ECR" style="sketch=0;points=[[0,0,0],[0.25,0,0],[0.5,0,0],[0.75,0,0],[1,0,0],[0,1,0],[0.25,1,0],[0.5,1,0],[0.75,1,0],[1,1,0],[0,0.25,0],[0,0.5,0],[0,0.75,0],[1,0.25,0],[1,0.5,0],[1,0.75,0]];outlineConnect=0;fontColor=#232F3E;fillColor=#ED7100;strokeColor=#ffffff;dashed=0;verticalLabelPosition=bottom;verticalAlign=top;align=center;html=1;fontSize=12;fontStyle=0;aspect=fixed;shape=mxgraph.aws4.resourceIcon;resIcon=mxgraph.aws4.ecr;" parent="1" vertex="1">
          <mxGeometry x="760" y="340" width="40" height="40" as="geometry" />
        </mxCell>
        <mxCell id="Kdh0TlH22Dbh6Vwh0U4J-9" value="" style="edgeStyle=orthogonalEdgeStyle;html=1;endArrow=block;elbow=vertical;startArrow=none;endFill=1;strokeColor=#545B64;rounded=0;" parent="1" source="Kdh0TlH22Dbh6Vwh0U4J-3" target="Kdh0TlH22Dbh6Vwh0U4J-5" edge="1">
          <mxGeometry width="100" relative="1" as="geometry">
            <mxPoint x="-20" y="380" as="sourcePoint" />
            <mxPoint x="80" y="380" as="targetPoint" />
            <Array as="points">
              <mxPoint x="380.5" y="300" />
              <mxPoint x="380.5" y="360" />
            </Array>
          </mxGeometry>
        </mxCell>
        <mxCell id="pyhoRx6HutO-5y7TROgT-12" value="" style="shape=image;verticalLabelPosition=bottom;labelBackgroundColor=default;verticalAlign=top;aspect=fixed;imageAspect=0;editableCssRules=.*;image=data:image/svg+xml,PHN2ZyB4bWxucz0iaHR0cDovL3d3dy53My5vcmcvMjAwMC9zdmciIHZpZXdCb3g9IjAgNTEuMDk3OTk5NTcyNzUzOTA2IDEyOCAyNS44MDM5OTMyMjUwOTc2NTYiIHdpZHRoPSIxMjgiIGhlaWdodD0iMjUuODAzOTkzMjI1MDk3NjU2Ij48cGF0aCBkPSJNMCA1MS4wOThWNzYuODZoNC40MjJWNTYuNjA0TDIwLjczIDc2Ljg3aDI3LjY5NHYtNC4xMTNIMzAuNTUzdi02LjgwMWgxNC4zN3YtNC4xMTNoLTE0LjM3di02LjYyMWgxNy44N3YtNC4xMTZIMjYuMTN2NC4xMTZoLjAwMlY3Ni42OEw1LjUyNyA1MS4wOThIMHptODUuMDkuMDF2NC4xMTVoOS4wM3YyMS42NWg0LjQydi0yMS42NWg4Ljg0N3YtNC4xMTZIODUuMDl6bS0zMS4zMjIuMDExIDIwLjczIDI1Ljc2NGg1LjgwM0w2OS45MzYgNjQuMDFsMTAuMzUtMTIuODcxLTUuNzkuMDEtNy40NTkgOS4yNjEtNy40OC05LjI5aC01Ljc5em03MC4xNTggMTQuNTk4Yy0uNzYxIDAtMS40NDUuMTI4LTIuMDUxLjM5NC0uNjAyLjI2My0xLjA3OC42MzMtMS40MjYgMS4xMDgtLjM1LjQ3Ni0uNTI1IDEuMDMyLS41MjUgMS42NjQgMCAuNzcuMjU4IDEuMzg0Ljc4IDEuODQ3LjUxNy40NjQgMS4yMjcuODA5IDIuMTI0IDEuMDM2bDEuMjQuMzEyYTcuMDIgNy4wMiAwIDAgMSAxLjAyNi4zMzQgMS45MSAxLjkxIDAgMCAxIC42ODMuNDYxIDEuMDM0IDEuMDM0IDAgMCAxIC4yNDguNjk3IDEuMjUgMS4yNSAwIDAgMS0uMjgzLjgwMyAxLjc3IDEuNzcgMCAwIDEtLjc2LjUzNSAzLjExIDMuMTEgMCAwIDEtMS4xMzIuMTkyIDMuMjQgMy4yNCAwIDAgMS0xLjExNi0uMTgyIDEuOTAyIDEuOTAyIDAgMCAxLS44MDQtLjU1NyAxLjYzIDEuNjMgMCAwIDEtLjM1Mi0uOTMxaC0xLjk0MWMuMDI3LjcxLjIxNiAxLjMxNi41NjYgMS44MTJzLjgzNi44NzMgMS40NiAxLjEzYy42Mi4yNiAxLjM1Ny4zOSAyLjIwMi4zOS44NzUgMCAxLjYxOS0uMTM2IDIuMjMzLS40LjYxNy0uMjcgMS4wODgtLjY0MyAxLjQxNC0xLjExOC4zMjctLjQ3OS40ODgtMS4wMjguNDg4LTEuNjU4IDAtLjQ2Ni0uMDktLjg3Mi0uMjY2LTEuMjE3YTIuNzI2IDIuNzI2IDAgMCAwLS43Mi0uODg3IDQuMjI3IDQuMjI3IDAgMCAwLTEuMDI4LS42MDcgNy4wOSA3LjA5IDAgMCAwLTEuMTktLjM4NWwtMS4wMi0uMjVhNi45NzUgNi45NzUgMCAwIDEtLjY2Ny0uMTk1IDIuODIgMi44MiAwIDAgMS0uNTk3LS4yODUgMS4zMDQgMS4zMDQgMCAwIDEtLjQzLS40MTggMS4wMzcgMS4wMzcgMCAwIDEtLjE1OC0uNTggMS4yMSAxLjIxIDAgMCAxIC4yMzgtLjcxN2MuMTU2LS4yMS4zODUtLjM3Ni42NzgtLjVhMi43NzEgMi43NzEgMCAwIDEgMS4wNTYtLjE4NGMuNTg1IDAgMS4wNjIuMTI2IDEuNDMuMzgzYTEuNDI0IDEuNDI0IDAgMCAxIC42MjMgMS4wN2gxLjlhMi43NzUgMi43NzUgMCAwIDAtLjUxMy0xLjYwN2MtLjMzMy0uNDY2LS43OTItLjgzMy0xLjM3Ny0xLjA5Ni0uNTg0LS4yNjUtMS4yNi0uMzk0LTIuMDMzLS4zOTR6bS03Ljk5OC4xNDR2Ny41NWMtLjAwMy4zNzctLjA2Mi42OTctLjE3Ni45NTRhMS4yNSAxLjI1IDAgMCAxLS41MDYuNTg0Yy0uMjE4LjEzMy0uNDg4LjItLjgwMy4yLS4yOSAwLS41NDYtLjA1Ny0uNzcxLS4xN2ExLjI0NyAxLjI0NyAwIDAgMS0uNTIyLS40ODEgMS40NzQgMS40NzQgMCAwIDEtLjE5NS0uNzVoLTEuOTYzYzAgLjY2MS4xNDcgMS4yMTMuNDQ3IDEuNjU2YTIuNzY4IDIuNzY4IDAgMCAwIDEuMjExIDEuMDAyIDQuMjIgNC4yMiAwIDAgMCAxLjcyLjM0Yy42OTcgMCAxLjMxMS0uMTM0IDEuODM1LS40YTIuOTcgMi45NyAwIDAgMCAxLjIzNi0xLjE0OWMuMjkzLS40OTkuNDQ0LTEuMDkzLjQ0OC0xLjc4N3YtNy41NDloLTEuOTYxem0tNTMuMzMyLjA1OS04Ljg0NCAxMC45ODJoNS44MDVsNS45MzctNy4zOC0yLjg5OC0zLjYwMnptNDUuNzg1IDguNDk4Yy0uMzI0IDAtLjYuMTEyLS44My4zMzZhMS4wNyAxLjA3IDAgMCAwLS4zNDQuODA3IDEuMDgyIDEuMDgyIDAgMCAwIC4zNDQuODE4Yy4yMy4yMjUuNTA2LjMzNi44My4zMzZhMS4xMDUgMS4xMDUgMCAwIDAgLjU3NC0uMTU2Yy4xNzctLjEwMS4zMTgtLjI0LjQyOC0uNDE2YTEuMTE1IDEuMTE1IDAgMCAwIC4xNjYtLjU4MiAxLjA5NyAxLjA5NyAwIDAgMC0uMzU0LS44MDcgMS4xMzMgMS4xMzMgMCAwIDAtLjgxNC0uMzM2eiIvPjwvc3ZnPg==;" vertex="1" parent="1">
          <mxGeometry x="400" y="280" width="98.46" height="20" as="geometry" />
        </mxCell>
        <mxCell id="pyhoRx6HutO-5y7TROgT-13" value="" style="shape=image;verticalLabelPosition=bottom;labelBackgroundColor=default;verticalAlign=top;aspect=fixed;imageAspect=0;editableCssRules=.*;image=data:image/svg+xml,PHN2ZyB4bWxucz0iaHR0cDovL3d3dy53My5vcmcvMjAwMC9zdmciIHZpZXdCb3g9IjAgNTYuMDczOTk3NDk3NTU4NTk0IDEyOCAxNS45MDMwMDc1MDczMjQyMTkiIHdpZHRoPSIxMjgiIGhlaWdodD0iMTUuOTAzMDA3NTA3MzI0MjE5Ij48cGF0aCBkPSJNMTMuMjI3IDU2LjA3NGMtMy41MjggMC01LjcyNyAxLjc3OC02LjYwMiA1LjMwMSAxLjMyNC0xLjc3MyAyLjg3NS0yLjQyNiA0LjYyNS0xLjk3NyAxIC4yNSAxLjcyNy45NzcgMi41MjMgMS44MDEgMS4zMDEgMS4zMjQgMi44MDEgMi44NTIgNi4wNzkgMi44NTIgMy41MjMgMCA1LjcyMi0xLjc3OCA2LjU5Ny01LjMwMS0xLjMyNCAxLjc3My0yLjg3NSAyLjQyNi00LjYyNSAxLjk3Ny0xLS4yNS0xLjcyMi0uOTc3LTIuNTIzLTEuODAxLTEuMzAxLTEuMzI0LTIuODAxLTIuODUyLTYuMDc0LTIuODUyek02LjYwMiA2NEMzLjA3NCA2NCAuODc1IDY1Ljc3MyAwIDY5LjNjMS4zMjQtMS43NzcgMi44NzUtMi40MjUgNC42MjUtMS45NzYgMSAuMjUgMS43MjcuOTc3IDIuNTIzIDEuODAxIDEuMzAxIDEuMzI0IDIuODAxIDIuODUyIDYuMDc5IDIuODUyIDMuNTIzIDAgNS43MjItMS43NzggNi41OTctNS4zMDEtMS4zMjQgMS43NzMtMi44NzUgMi40MjYtNC42MjUgMS45NzItMS0uMjUtMS43MjItLjk3Mi0yLjUyMy0xLjc5NkMxMS4zOTggNjUuNTIzIDkuODk4IDY0IDYuNjAyIDY0em0wIDAiIGZpbGw9IiMzOGJkZjgiLz48cGF0aCBkPSJNMzkuNjc2IDYyLjc1aC0yLjMwMXY0LjQ3N2MwIDEuMTk5Ljc3MyAxLjE3MSAyLjMgMS4wOTd2MS44MDFjLTMuMS4zNzUtNC4zMjMtLjQ3Ny00LjMyMy0yLjg5OFY2Mi43NWgtMS43MDR2LTEuOTI2aDEuNzA0di0yLjVsMi0uNTk3djMuMDk3aDIuMjk2djEuOTI2em04LjgtMS45MjZoMnY5LjMwMWgtMnYtMS4zNTJjLS43MDMuOTc3LTEuOCAxLjU3OS0zLjI1IDEuNTc5LTIuNTI3IDAtNC42MjQtMi4xNTMtNC42MjQtNC45MDMgMC0yLjc3MyAyLjA5Ny00Ljg5OCA0LjYyNS00Ljg5OCAxLjQ0OSAwIDIuNTQ2LjU5NyAzLjI1IDEuNTc0em0tMi45NTMgNy42MjVjMS42NzYgMCAyLjk1NC0xLjI1IDIuOTU0LTIuOTcyIDAtMS43MjctMS4yNzgtMi45NzctMi45NTQtMi45NzctMS42NzEgMC0yLjk0OSAxLjI1LTIuOTQ5IDIuOTc3LjAyOCAxLjcyMiAxLjI3OCAyLjk3MiAyLjk1IDIuOTcyem04LjMwMS05LjAyM2MtLjY5OSAwLTEuMjczLS42MDItMS4yNzMtMS4yNzggMC0uNjk5LjU3NC0xLjI3MyAxLjI3My0xLjI3My43IDAgMS4yNzguNTc0IDEuMjc4IDEuMjczLjAyMy42NzYtLjU3OSAxLjI3OC0xLjI3OCAxLjI3OHptLTEgMTAuNjk5di05LjNoMnY5LjN6bTQuMzI0IDBWNTYuNTUxaDJ2MTMuNTc0em0xNS4wNzktOS4zaDIuMTI1bC0yLjkyNiA5LjNoLTEuOTc3bC0xLjkyNi02LjI3My0xLjk0OSA2LjI3M2gtMS45NzJsLTIuOTI2LTkuM0g2Mi44bDEuOCA2LjQyNSAxLjk1LTYuNDI2aDEuOTI2bDEuOTIxIDYuNDI2em00LjU5Ny0xLjRjLS42OTkgMC0xLjI3My0uNi0xLjI3My0xLjI3NyAwLS42OTkuNTc0LTEuMjczIDEuMjczLTEuMjczLjcgMCAxLjI3OC41NzQgMS4yNzggMS4yNzMuMDIzLjY3Ni0uNTUxIDEuMjc4LTEuMjc4IDEuMjc4em0tMSAxMC43di05LjNoMnY5LjN6bTkuMjI3LTkuNTVjMi4wNzQgMCAzLjU3NCAxLjQyNSAzLjU3NCAzLjgyM3Y1LjcyN2gtMnYtNS41YzAtMS40MjYtLjgyNC0yLjE0OC0yLjA3NC0yLjE0OC0xLjMyNCAwLTIuMzc1Ljc3My0yLjM3NSAyLjY3MXY1aC0ydi05LjI5NmgydjEuMTk5Yy42MjUtMSAxLjYyNS0xLjQ3NyAyLjg3NS0xLjQ3N3ptMTMuMTI1LTMuNDczaDJ2MTMuMDIzaC0ydi0xLjM1MmMtLjcuOTc3LTEuODAxIDEuNTc5LTMuMjUgMS41NzktMi41MjggMC00LjYyNS0yLjE1My00LjYyNS00LjkwMyAwLTIuNzczIDIuMDk3LTQuODk4IDQuNjI1LTQuODk4IDEuNDQ5IDAgMi41NS41OTcgMy4yNSAxLjU3NHptLTIuOTUgMTEuMzQ3YzEuNjcyIDAgMi45NS0xLjI1IDIuOTUtMi45NzIgMC0xLjcyNy0xLjI3OC0yLjk3Ny0yLjk1LTIuOTc3LTEuNjc1IDAtMi45NTMgMS4yNS0yLjk1MyAyLjk3NyAwIDEuNzIyIDEuMjc4IDIuOTcyIDIuOTU0IDIuOTcyem0xMS42NzIgMS45MjZjLTIuNzk2IDAtNC45MjEtMi4xNDgtNC45MjEtNC44OTggMC0yLjc3OCAyLjA5Ny00LjkwMyA0LjkyMS00LjkwMyAxLjgyOSAwIDMuNDAzLjk1IDQuMTUzIDIuNDAzbC0xLjcyNyAxYy0uMzk4LS44NzUtMS4zMjQtMS40MjYtMi40NDktMS40MjYtMS42NDggMC0yLjg3NSAxLjI1LTIuODc1IDIuOTI2IDAgMS42NzEgMS4yNSAyLjkyMSAyLjg3NSAyLjkyMSAxLjEyNSAwIDIuMDIzLS41NzQgMi40NzctMS40MjFsMS43MjIuOTcyYy0uNzUgMS40NzctMi4zNDcgMi40MjYtNC4xNzYgMi40MjZ6bTcuNTI4LTdjMCAxLjcgNSAuNjc2IDUgNC4xMjUgMCAxLjg1Mi0xLjYyNSAyLjg3NS0zLjYyNSAyLjg3NS0xLjg1MiAwLTMuMi0uODUyLTMuODAxLTIuMTc2bDEuNzI3LTFjLjI5Ni44NTIgMS4wNDYgMS4zNTIgMi4wNzQgMS4zNTIuODk4IDAgMS41NzQtLjMwMSAxLjU3NC0xLjA1MSAwLTEuNjQ4LTUtLjcyNy01LTQuMDUgMC0xLjc1IDEuNS0yLjg0OCAzLjM5OC0yLjg0OCAxLjUyOCAwIDIuODAxLjY5OSAzLjQ1NCAxLjkyMWwtMS43MDQuOTU0Yy0uMzI0LS43MjctLjk3Mi0xLjA1MS0xLjc1LTEuMDUxLS43MjItLjAyOC0xLjM0Ny4zLTEuMzQ3Ljk0OXptOC41NzQgMGMwIDEuNyA1IC42NzYgNSA0LjEyNSAwIDEuODUyLTEuNjI1IDIuODc1LTMuNjI1IDIuODc1LTEuODUyIDAtMy4yLS44NTItMy44LTIuMTc2bDEuNzI2LTFjLjMuODUyIDEuMDUgMS4zNTIgMi4wNzQgMS4zNTIuODk4IDAgMS41NzQtLjMwMSAxLjU3NC0xLjA1MSAwLTEuNjQ4LTUtLjcyNy01LTQuMDUgMC0xLjc1IDEuNS0yLjg0OCAzLjQwMy0yLjg0OCAxLjUyMyAwIDIuNzk2LjY5OSAzLjQ0OSAxLjkyMWwtMS43Ljk1NGMtLjMyOC0uNzI3LS45NzYtMS4wNTEtMS43NS0xLjA1MS0uNzI2LS4wMjgtMS4zNTEuMy0xLjM1MS45NDl6bTAgMCIgZmlsbD0iI2ZmZiIvPjwvc3ZnPg==;imageBackground=#000000;fillStyle=solid;" vertex="1" parent="1">
          <mxGeometry x="400" y="310" width="160" height="20" as="geometry" />
        </mxCell>
        <mxCell id="pyhoRx6HutO-5y7TROgT-14" value="" style="shape=image;verticalLabelPosition=bottom;labelBackgroundColor=default;verticalAlign=top;aspect=fixed;imageAspect=0;editableCssRules=.*;image=data:image/svg+xml,PHN2ZyB4bWxucz0iaHR0cDovL3d3dy53My5vcmcvMjAwMC9zdmciIHZpZXdCb3g9IjEgNyAxMjYuMTAwMDA2MTAzNTE1NjIgMTEzLjUzNDUwMDEyMjA3MDMxIiB3aWR0aD0iMTI2LjEwMDAwNjEwMzUxNTYyIiBoZWlnaHQ9IjExMy41MzQ1MDAxMjIwNzAzMSI+PHBhdGggZmlsbD0iIzAxOUJDNiIgZD0iTTg2IDExOC40YzAtLjMuMS0uNiAwLS45LS4yLS4zLS4zLS41LS41LS43LS41LS42LTEtMS4xLTEuNi0xLjdsLTUuOS02IDQuNi00LjcgMi41LTIuN2MuNC0uNC45LTEuMi45LTEuOHYtLjRjMC0uOS0uNC0xLjQtMS4zLTEuNmwuMi4xaC0uN2MtLjYgMC0yLjMgMS42LTIuNyAyLjEtMS41IDEuNS0yLjUgMi45LTQuNSA0LjRWOTIuNmMwLTEuMS0uNi0xLjYtMS43LTEuNkg3NWMtMS4xIDAtMiAuNS0yIDEuNnYyNS45YzAgMS4xLjkgMS41IDIgMS41aC4zYzEuMSAwIDEuNy0uNSAxLjctMS41di00LjZsMyAyLjljLjkuOSAxLjggMS41IDIuNiAyLjMuNC40IDEuMi45IDEuOC45aC4zYzEgMCAxLjMtLjUgMS41LTEuM2wtLjIuMXYtLjR6TTEyNS4xIDk4aC0uNGMtMi4yIDAtNC4yLjYtNiAxLjktMyAyLjItNC43IDUuMS00LjcgOC45djkuOGMwIDEuMS40IDEuNCAxLjUgMS40aC4zYzEuMSAwIDIuMi0uNCAyLjItMS40di05LjJjMC0yIC40LTMuOSAxLjktNS40IDEuMi0xLjIgMi43LTIuMiA0LjQtMi4yIDEuMyAwIDIuOC0uMyAyLjgtMS45IDAtMS4yLS45LTEuOS0yLTEuOXptLTE1LjQgNWMtMS4xLTEuOC0yLjYtMy4yLTQuNS00LjEtMy41LTEuNy03LjItMS45LTEwLjYuMWwtLjUuM2MtMS40LjgtMi42IDEuOC0zLjUgMy4xLTIuNiAzLjgtMi45IDguMS0uNiAxMi4xbC4yLjRjMSAxLjcgMi4zIDMuMSA0IDQgMy42IDIgNy41IDIuMiAxMS4xLjJsLjMtLjJjMS0uNiAxLjItMS42LjctMi42LS4yLS40LS42LS43LTEtLjloLS4yYy0uNy0uMS0yLjYuNy0zLjMgMS0xLjQuMi0zIC4zLTQuNC0uMmw3LjYtNi42YzEuMS0xIDIuMy0yLjEgMy41LTMgMS0uOCAyLTEuOSAxLjItMy4zdi0uM3ptLTYuOSAzLjZsLTguNSA3LjNjLS4zLS4zLS41LS43LS43LTEtLjYtMS0xLTIuMi0xLTMuNC0uMS0zIDEtNS41IDMuNy03IDItMS4yIDQuMi0xLjQgNi40LS42IDEuMS40IDIuNCAxLjEgMy4xIDIuMS0xIC45LTIuMSAxLjctMyAyLjZ6TTIyIDkxaC0uM2MtMS4xIDAtMS43LjQtMS43IDEuNXY4LjFjLTItMS44LTQuNC0yLjUtNy4yLTIuNUgxMmMtMS45IDAtMy43LjMtNS40IDEuMy0zLjYgMi4xLTUuNiA1LjItNS42IDkuNHYuOGMwIDEuOS41IDMuNSAxLjUgNS4yIDIuMSAzLjYgNS40IDUuNCA5LjUgNS40aC44YzEuOSAwIDMuOS0uMyA1LjUtMS4yIDMuNi0yLjEgNS43LTUuMiA1LjctOS4zdi0xN2MwLTEuMy0uOS0xLjctMi0xLjd6bS0zLjEgMjEuOGMtMS41IDIuNS0zLjcgMy45LTYuNiAzLjktMS4yIDAtMi40LS4zLTMuNC0uOS0yLjYtMS40LTQuMS0zLjctNC4xLTYuNyAwLTEuMS4yLTIuMS43LTMuMSAxLjQtMi45IDMuNy00LjUgNi45LTQuNSAxLjYgMCAzIC41IDQuMiAxLjQgMi4xIDEuNSAzLjMgMy41IDMuMyA2LjEuMSAxLjQtLjMgMi42LTEgMy44ek0zNy42IDk4SDM3Yy0xLjkgMC0zLjguMy01LjQgMS4zLTMuNiAyLjEtNS42IDUuMi01LjYgOS40di44YzAgMS45LjUgMy41IDEuNSA1LjIgMi4xIDMuNiA1LjQgNS40IDkuNiA1LjRoLjhjMS45IDAgMy44LS4zIDUuNS0xLjIgMy42LTIuMSA1LjctNS4yIDUuNy05LjN2LS44YzAtMS44LS42LTMuMy0xLjQtNC44LTIuMi00LTUuNy02LTEwLjEtNnptNi40IDE0LjhjLTEuNSAyLjQtMy42IDMuOS02LjUgMy45LTEuMyAwLTIuNi0uMy0zLjgtMS0yLjUtMS41LTMuOS0zLjYtMy45LTYuNSAwLTEuMS4yLTIuMS43LTMuMSAxLjQtMi45IDMuNy00LjUgNi45LTQuNSAxLjUgMCAyLjguNCA0IDEuMiAyLjIgMS41IDMuNSAzLjYgMy41IDYuMy4xIDEuMi0uMiAyLjUtLjkgMy43em0yNC41LTEzLjRsLS4xLjFjLTEuNy0xLjEtMy42LTEuNS01LjYtMS41SDYyYy0xLjkgMC0zLjguMy01LjQgMS4zLTMuNiAyLjEtNS42IDUuMi01LjYgOS4zdi44YzAgMSAuMiAxLjkuNCAyLjkgMS42IDUuNSA1LjkgOC42IDExLjcgOC4yIDEuNi0uMSA1LjktLjYgNS45LTN2LS40YzAtLjktLjctMS43LTEuNS0xLjlsLS4xLS4yaC0uN2wtLjIuM2MtLjkuNC0yLjQgMS4yLTMuNCAxLjItMS4yIDAtMi41IDAtMy42LS42LTIuOS0xLjQtNC42LTMuNy00LjYtNi45IDAtMS4xLjItMi4xLjctMy4xIDEuNC0yLjggMy43LTQuNiA2LjktNC41LjYgMCAxLjcuMyAyLjMuNi41LjIgMS44IDEgMi40IDFoLjJsLjEtLjJjLjktLjIgMS42LS45IDEuNi0xLjh2LS40YzAtLjQtLjItLjctLjQtMWwtLjItLjJ6TTUuOCA2OC4ybC4xLjJjNy45IDEzLjQgMjEuNyAxOSAzNi44IDE5IDI5LjIgMCA1My4zLTEzLjEgNjQuMy00MC42IDcuNC40IDE1LTEuOCAxOC42LTguOWwuOS0xLjgtMS44LTFjLTQuMy0yLjUtMTAtMi44LTE0LjgtMS40LS42LTUuMi00LTkuNy04LTEyLjlsLTEuNi0xLjMtMS4zIDEuNmMtMi43IDMuMS0zLjUgOC4zLTMuMSAxMi4zLjMgMi45IDEuMiA1LjkgMyA4LjMtMS40LjgtMi45IDEuOS00LjMgMi40LTIuOCAxLTUuOSAyLTguOSAySDc5VjMySDY2VjdINTF2MTJIMjZ2MTNIMTN2MTRIMS44bC0uMiAxLjVjLS41IDYuNC4zIDEyLjYgMyAxOC41bDEuMiAyLjJ6TTY2IDM1aDExdjExSDY2VjM1ek01MyA5aDExdjExSDUzVjl6bTAgMTNoMTF2MTFINTNWMjJ6bTAgMTNoMTF2MTFINTNWMzV6TTQwIDIyaDExdjExSDQwVjIyem0wIDEzaDExdjExSDQwVjM1em0xLjEgMzEuMmMwIDEuNy0xLjQgMy4xLTMuMSAzLjEtMS43IDAtMy4xLTEuNC0zLjEtMy4xIDAtMS43IDEuNC0zLjEgMy4xLTMuMSAxLjcuMSAzLjEgMS40IDMuMSAzLjF6TTI4IDIyaDEwdjExSDI4VjIyem0wIDEzaDEwdjExSDI4VjM1em0tMTMgMGgxMXYxMUgxNVYzNXptMi40IDM4YzEuNiAwIDMuMiAwIDQuNy0uMSAzLjktLjIgNy4zLS43IDEwLjEtMS41IDIuMyA1LjMgNi41IDEwLjIgMTQgMTMuOGwtMy41LjFjLTE1LjgtLjEtMjQuMy01LjQtMzEuMy0xMi40IDIuMS4xIDQuMS4xIDYgLjF6TTM4IDY4LjRjMS4yIDAgMi4yLTEgMi4yLTIuMiAwLS4zLS4xLS42LS4yLS44LS4yLjMtLjQuNS0uOC41LS41IDAtLjktLjQtLjktLjkgMC0uMy4yLS42LjQtLjgtLjEtLjEtLjQtLjItLjctLjItMS4yIDAtMi4yIDEtMi4yIDIuMi4xIDEuMiAxIDIuMiAyLjIgMi4yeiIvPjwvc3ZnPg==;" vertex="1" parent="1">
          <mxGeometry x="510" y="270" width="33.16" height="30" as="geometry" />
        </mxCell>
        <mxCell id="Kdh0TlH22Dbh6Vwh0U4J-8" value="OAC" style="edgeStyle=orthogonalEdgeStyle;html=1;endArrow=block;elbow=vertical;startArrow=none;endFill=1;strokeColor=#545B64;rounded=0;" parent="1" source="Kdh0TlH22Dbh6Vwh0U4J-2" target="Kdh0TlH22Dbh6Vwh0U4J-3" edge="1">
          <mxGeometry x="-0.4" width="100" relative="1" as="geometry">
            <mxPoint x="140" y="360" as="sourcePoint" />
            <mxPoint x="240" y="360" as="targetPoint" />
            <Array as="points">
              <mxPoint x="160.5" y="300" />
              <mxPoint x="160.5" y="300" />
            </Array>
            <mxPoint as="offset" />
          </mxGeometry>
        </mxCell>
        <mxCell id="pyhoRx6HutO-5y7TROgT-26" value="/*" style="edgeLabel;html=1;align=center;verticalAlign=middle;resizable=0;points=[];" vertex="1" connectable="0" parent="Kdh0TlH22Dbh6Vwh0U4J-8">
          <mxGeometry x="0.0673" y="1" relative="1" as="geometry">
            <mxPoint x="13" y="-9" as="offset" />
          </mxGeometry>
        </mxCell>
        <mxCell id="pyhoRx6HutO-5y7TROgT-19" value="ECR" style="sketch=0;points=[[0,0,0],[0.25,0,0],[0.5,0,0],[0.75,0,0],[1,0,0],[0,1,0],[0.25,1,0],[0.5,1,0],[0.75,1,0],[1,1,0],[0,0.25,0],[0,0.5,0],[0,0.75,0],[1,0.25,0],[1,0.5,0],[1,0.75,0]];outlineConnect=0;fontColor=#232F3E;fillColor=#ED7100;strokeColor=#ffffff;dashed=0;verticalLabelPosition=bottom;verticalAlign=top;align=center;html=1;fontSize=12;fontStyle=0;aspect=fixed;shape=mxgraph.aws4.resourceIcon;resIcon=mxgraph.aws4.ecr;" vertex="1" parent="1">
          <mxGeometry x="760" y="640" width="40" height="40" as="geometry" />
        </mxCell>
        <mxCell id="pyhoRx6HutO-5y7TROgT-20" value="" style="edgeStyle=orthogonalEdgeStyle;html=1;endArrow=block;elbow=vertical;startArrow=none;endFill=1;strokeColor=#545B64;rounded=0;" edge="1" parent="1" source="pyhoRx6HutO-5y7TROgT-2" target="pyhoRx6HutO-5y7TROgT-19">
          <mxGeometry width="100" relative="1" as="geometry">
            <mxPoint x="730" y="570" as="sourcePoint" />
            <mxPoint x="830" y="570" as="targetPoint" />
            <Array as="points">
              <mxPoint x="420.5" y="620" />
              <mxPoint x="420.5" y="660" />
            </Array>
          </mxGeometry>
        </mxCell>
        <mxCell id="pyhoRx6HutO-5y7TROgT-29" value="" style="edgeStyle=orthogonalEdgeStyle;html=1;endArrow=block;elbow=vertical;startArrow=none;endFill=1;strokeColor=#545B64;rounded=0;" edge="1" parent="1" source="Kdh0TlH22Dbh6Vwh0U4J-2" target="Kdh0TlH22Dbh6Vwh0U4J-4">
          <mxGeometry width="100" relative="1" as="geometry">
            <mxPoint x="170" y="400" as="sourcePoint" />
            <mxPoint x="270" y="400" as="targetPoint" />
            <Array as="points">
              <mxPoint x="140" y="300" />
              <mxPoint x="140" y="420" />
            </Array>
          </mxGeometry>
        </mxCell>
        <mxCell id="pyhoRx6HutO-5y7TROgT-31" value="OAC" style="edgeLabel;html=1;align=center;verticalAlign=middle;resizable=0;points=[];" vertex="1" connectable="0" parent="pyhoRx6HutO-5y7TROgT-29">
          <mxGeometry x="0.1031" relative="1" as="geometry">
            <mxPoint x="4" as="offset" />
          </mxGeometry>
        </mxCell>
        <mxCell id="pyhoRx6HutO-5y7TROgT-33" value="/_next/static/*" style="edgeLabel;html=1;align=center;verticalAlign=middle;resizable=0;points=[];" vertex="1" connectable="0" parent="pyhoRx6HutO-5y7TROgT-29">
          <mxGeometry x="0.408" relative="1" as="geometry">
            <mxPoint x="15" y="-10" as="offset" />
          </mxGeometry>
        </mxCell>
        <mxCell id="pyhoRx6HutO-5y7TROgT-35" value="" style="edgeStyle=orthogonalEdgeStyle;html=1;endArrow=none;elbow=vertical;startArrow=block;startFill=1;strokeColor=#545B64;rounded=0;" edge="1" parent="1" source="Kdh0TlH22Dbh6Vwh0U4J-5" target="pyhoRx6HutO-5y7TROgT-23">
          <mxGeometry width="100" relative="1" as="geometry">
            <mxPoint x="830" y="490" as="sourcePoint" />
            <mxPoint x="930" y="490" as="targetPoint" />
            <Array as="points">
              <mxPoint x="840" y="360" />
              <mxPoint x="840" y="660" />
            </Array>
          </mxGeometry>
        </mxCell>
        <mxCell id="pyhoRx6HutO-5y7TROgT-36" value="" style="edgeStyle=orthogonalEdgeStyle;html=1;endArrow=none;elbow=vertical;startArrow=block;startFill=1;strokeColor=#545B64;rounded=0;" edge="1" parent="1" source="pyhoRx6HutO-5y7TROgT-19" target="pyhoRx6HutO-5y7TROgT-23">
          <mxGeometry width="100" relative="1" as="geometry">
            <mxPoint x="830" y="490" as="sourcePoint" />
            <mxPoint x="930" y="490" as="targetPoint" />
            <Array as="points">
              <mxPoint x="860" y="660" />
              <mxPoint x="860" y="660" />
            </Array>
          </mxGeometry>
        </mxCell>
        <mxCell id="pyhoRx6HutO-5y7TROgT-37" value="イメージのビルドとプッシュ" style="edgeLabel;html=1;align=center;verticalAlign=middle;resizable=0;points=[];" vertex="1" connectable="0" parent="pyhoRx6HutO-5y7TROgT-36">
          <mxGeometry x="0.2482" y="1" relative="1" as="geometry">
            <mxPoint x="-10" y="-59" as="offset" />
          </mxGeometry>
        </mxCell>
      </root>
    </mxGraphModel>
  </diagram>
</mxfile>
